<?xml version="1.0" encoding="utf-8"?>
<!-- Generator: Adobe Illustrator 13.0.0, SVG Export Plug-In . SVG Version: 6.00 Build 14948)  -->
<!DOCTYPE svg PUBLIC "-//W3C//DTD SVG 1.1//EN" "http://www.w3.org/Graphics/SVG/1.1/DTD/svg11.dtd">
<svg version="1.1" id="Layer_1" xmlns="http://www.w3.org/2000/svg" xmlns:xlink="http://www.w3.org/1999/xlink" x="0px" y="0px"
	 width="741.057px" height="120.167px" viewBox="0 0 741.057 120.167" enable-background="new 0 0 741.057 120.167"
	 xml:space="preserve">
<path d="M104.536,99.677c0,6.949,1.041,11.11,4.164,12.326c0.522,0.525,0.522,1.564-0.172,2.085c-2.083,0-5.207,0.697-8.503,1.564
	c-9.207,2.43-21.713,4.515-31.083,4.515c-20.67,0-39.595-5.726-52.968-19.279C5.552,90.478,0,76.751,0,61.469
	c0-14.752,4.869-29.685,15.627-41.146C27.264,8.161,44.455,0,70.678,0c9.89,0,19.097,1.912,22.048,2.611
	c3.296,0.693,8.676,1.913,10.769,1.564c0,5.726,1.041,14.756,2.603,25.174c-0.521,1.391-3.654,1.564-4.696,0.525
	C96.544,11.116,83.519,5.213,65.818,5.213c-33.694,0-48.444,23.96-48.444,50.017c0,33.339,17.188,59.555,52.089,59.555
	c10.759,0,17.189-2.257,19.099-5.213c0.867-1.219,1.734-4.342,1.734-9.896v-6.949c0-14.581-0.521-15.627-11.289-16.843l-7.636-0.87
	c-1.387-0.693-1.225-3.817,0-4.343c5.033,0.354,14.587,0.525,24.837,0.525c6.766,0,12.667-0.172,18.392-0.525
	c1.216,0.702,1.398,3.305,0.175,4.343l-2.777,0.353c-7.288,0.871-7.462,5.727-7.462,14.584V99.677z"/>
<path d="M145.048,29.001c0-16.498-0.529-19.44-7.645-20.314l-5.551-0.698c-1.215-0.862-1.215-3.637,0.172-4.335
	c9.728-0.875,21.702-1.387,38.718-1.387c10.769,0,21.017,0.861,29,5.204c8.329,4.339,14.414,12.159,14.414,24.313
	c0,16.492-13.026,25.519-21.702,29c-0.868,1.033,0,2.774,0.866,4.161c13.893,22.404,23.092,36.295,34.901,46.188
	c2.951,2.61,7.288,4.519,11.984,4.864c0.868,0.345,1.041,1.739,0.175,2.43c-1.562,0.517-4.34,0.87-7.648,0.87
	c-14.748,0-23.608-4.343-35.941-21.878c-4.511-6.429-11.635-18.406-17.014-26.223c-2.605-3.816-5.382-5.557-12.331-5.557
	c-7.809,0-8.156,0.176-8.156,3.817v21.887c0,18.228,0.347,20.314,10.412,21.697l3.653,0.525c1.04,0.874,0.683,3.822-0.357,4.338
	c-7.81-0.344-13.708-0.516-20.659-0.516c-7.291,0-13.546,0.172-21.702,0.516c-1.043-0.516-1.398-3.118-0.347-4.338l4.336-0.525
	c10.076-1.206,10.422-3.47,10.422-21.697V29.001z M159.29,53.835c0,3.123,0,5.032,0.519,5.726c0.522,0.529,3.124,0.87,11.974,0.87
	c6.257,0,12.862-0.694,17.895-4.511c4.686-3.649,8.677-9.729,8.677-21.534c0-13.714-8.513-26.738-27.787-26.738
	c-10.759,0-11.278,0.693-11.278,5.549V53.835z"/>
<path d="M303.468,78.15c-1.214-3.844-1.908-4.372-7.115-4.372H270.13c-4.329,0-5.379,0.528-6.594,4.194l-6.073,18.374
	c-2.615,7.876-3.818,12.604-3.818,14.527c0,2.101,0.866,3.156,5.033,3.495l5.725,0.53c1.216,0.881,1.216,3.677-0.346,4.371
	c-4.513-0.347-9.903-0.347-18.059-0.521c-5.726,0-11.984,0.351-16.669,0.521c-1.041-0.694-1.388-3.49-0.347-4.371l5.728-0.53
	c4.164-0.339,7.982-2.271,10.422-8.563c3.124-8.049,7.981-19.429,15.28-39.027l17.71-47.246c2.43-6.295,3.47-9.625,2.951-12.422
	c4.164-1.228,7.113-4.372,9.033-6.656c1.032,0,2.255,0.356,2.602,1.585c2.257,7.694,5.032,15.743,7.637,23.45l23.793,70.336
	c5.033,15.048,7.298,17.675,14.761,18.543l4.685,0.53c1.215,0.881,0.866,3.677,0,4.371c-7.115-0.347-13.199-0.521-21.008-0.521
	c-8.339,0-14.933,0.351-19.976,0.521c-1.379-0.694-1.551-3.49-0.346-4.371l5.043-0.53c3.642-0.339,6.072-1.395,6.072-3.147
	c0-1.924-0.868-5.071-2.256-9.274L303.468,78.15z M269.089,62.577c-1.389,4.023-1.205,4.202,3.653,4.202h21.355
	c5.043,0,5.38-0.703,3.818-5.428l-9.382-28.524c-1.387-4.189-2.938-8.922-3.989-11.023h-0.347c-0.522,0.877-2.258,5.08-4.167,10.324
	L269.089,62.577z"/>
<path d="M372.617,14.77C385.286,4.865,401.435,0,419.499,0c9.372,0,22.568,1.913,30.737,4.175c2.081,0.521,3.296,0.866,4.86,0.69
	c0.172,3.989,1.038,14.937,2.425,25.528c-0.865,1.214-3.468,1.391-4.683,0.348c-2.603-11.809-10.423-25.355-35.593-25.355
	c-26.57,0-49.15,16.846-49.15,52.796c0,36.458,23.097,56.604,51.576,56.604c22.396,0,32.288-14.593,36.29-24.834
	c1.215-0.87,3.83-0.521,4.51,0.693c-1.214,9.031-5.725,20.487-8.327,23.795c-2.081,0.346-4.175,1.038-6.083,1.729
	c-3.817,1.392-16.321,3.998-27.44,3.998c-15.614,0-30.552-3.132-43.227-11.633c-13.893-9.557-24.653-25.351-24.653-47.75
	C350.741,41.504,359.418,25.011,372.617,14.77"/>
<path d="M495.365,28.833c0-18.057-0.345-20.672-10.595-21.887l-2.778-0.34c-1.038-0.698-0.682-3.826,0.349-4.339
	c7.471,0.345,13.373,0.513,20.486,0.513h32.646c11.124,0,21.365,0,23.446-0.513c1.051,2.947,2.081,15.454,2.775,23.089
	c-0.694,1.042-3.481,1.396-4.348,0.349c-2.603-8.156-4.166-14.235-13.188-16.497c-3.645-0.866-9.198-1.047-16.833-1.047h-12.503
	c-5.205,0-5.205,0.353-5.205,6.954v34.727c0,4.859,0.509,4.859,5.714,4.859h10.077c7.299,0,12.667-0.349,14.748-1.038
	c2.085-0.693,3.309-1.736,4.175-6.08l1.4-7.117c0.865-1.048,3.816-1.048,4.502,0.173c0,4.171-0.686,10.939-0.686,17.544
	c0,6.238,0.686,12.844,0.686,16.661c-0.686,1.219-3.637,1.219-4.502,0.172l-1.573-6.766c-0.693-3.131-1.917-5.737-5.381-6.604
	c-2.438-0.689-6.601-0.861-13.369-0.861h-10.077c-5.205,0-5.714,0.172-5.714,4.683v24.485c0,9.207,0.509,15.105,3.283,18.057
	c2.086,2.085,5.73,3.993,21.009,3.993c13.373,0,18.405-0.692,22.223-2.602c3.132-1.736,7.82-7.813,12.338-16.842
	c1.216-0.874,3.646-0.353,4.34,1.211c-1.215,6.079-5.562,19.448-7.807,24.136c-15.64-0.345-31.094-0.517-46.536-0.517h-15.64
	c-7.462,0-13.36,0.172-23.609,0.517c-1.043-0.517-1.388-3.292-0.35-4.338l5.73-0.527c9.909-0.86,10.767-3.468,10.767-21.696V28.833z
	"/>
<path d="M717.977,46.363c0-10.758-0.349-30.728-3.296-35.941c-1.215-2.081-4.338-3.296-8.677-3.649l-4.348-0.341
	c-1.034-1.219-0.686-3.476,0.345-4.166c6.604,0.345,13.024,0.513,19.793,0.513c7.308,0,11.996-0.168,18.242-0.513
	c1.388,0.862,1.215,3.12,0.345,4.166l-4.162,0.341c-4.352,0.353-7.635,1.913-8.686,4.171c-2.43,5.73-2.43,25.695-2.43,35.419v19.63
	c0,15.1-2.443,31.076-12.159,41.494c-7.471,8.165-20.314,12.68-33.166,12.68c-11.974,0-23.968-2.262-32.469-9.552
	c-9.199-7.643-13.546-20.318-13.546-40.981V28.66c0-18.066-0.349-21.012-10.413-21.887l-4.348-0.341
	c-1.042-0.693-0.693-3.653,0.349-4.166c8.687,0.345,14.585,0.513,21.525,0.513c7.126,0,12.853-0.168,21.365-0.513
	c1.043,0.513,1.388,3.473,0.35,4.166l-4.175,0.341c-10.064,0.875-10.414,3.821-10.414,21.887v37.505
	c0,27.953,8.687,46.363,35.248,46.363c25.17,0,34.726-19.801,34.726-46.187V46.363z"/>
</svg>
